LibreBaskerville-Italic.ufo
<glyph name="exclam" format="1">
  <advance width="317"/>
  <unicode hex="0021"/>
  <outline>
    <contour>
      <point x="164" y="207" type="line"/>
      <point x="175" y="280"/>
      <point x="206" y="401"/>
      <point x="243" y="494" type="curve" smooth="yes"/>
      <point x="291" y="614"/>
      <point x="307" y="655"/>
      <point x="307" y="705" type="curve" smooth="yes"/>
      <point x="307" y="758"/>
      <point x="289" y="780"/>
      <point x="252" y="780" type="curve" smooth="yes"/>
      <point x="206" y="780"/>
      <point x="186" y="747"/>
      <point x="177" y="662" type="curve" smooth="yes"/>
      <point x="129" y="207" type="line"/>
    </contour>
    <contour>
      <point x="119" y="-10" type="curve" smooth="yes"/>
      <point x="154" y="-10"/>
      <point x="183" y="17"/>
      <point x="183" y="52" type="curve" smooth="yes"/>
      <point x="183" y="86"/>
      <point x="156" y="116"/>
      <point x="120" y="116" type="curve" smooth="yes"/>
      <point x="84" y="116"/>
      <point x="57" y="87"/>
      <point x="57" y="51" type="curve" smooth="yes"/>
      <point x="57" y="15"/>
      <point x="86" y="-10"/>
    </contour>
  </outline>
</glyph>
<glyph name="dollar" format="1">
  <advance width="584"/>
  <unicode hex="0024"/>
  <outline>
    <contour>
      <point x="141" y="-146" type="line"/>
      <point x="198" y="-146" type="line"/>
      <point x="231" y="-10" type="line"/>
      <point x="235" y="-10" type="line" smooth="yes"/>
      <point x="381" y="-10"/>
      <point x="503" y="101"/>
      <point x="503" y="233" type="curve" smooth="yes"/>
      <point x="503" y="348"/>
      <point x="419" y="407"/>
      <point x="345" y="461" type="curve"/>
      <point x="409" y="726" type="line"/>
      <point x="455" y="717"/>
      <point x="480" y="690"/>
      <point x="480" y="650" type="curve" smooth="yes"/>
      <point x="480" y="610"/>
      <point x="456" y="574"/>
      <point x="425" y="565" type="curve"/>
      <point x="433" y="550"/>
      <point x="444" y="544"/>
      <point x="466" y="544" type="curve" smooth="yes"/>
      <point x="522" y="544"/>
      <point x="561" y="583"/>
      <point x="561" y="641" type="curve" smooth="yes"/>
      <point x="561" y="710"/>
      <point x="505" y="762"/>
      <point x="421" y="776" type="curve"/>
      <point x="443" y="865" type="line"/>
      <point x="386" y="865" type="line"/>
      <point x="365" y="780" type="line"/>
      <point x="233" y="776"/>
      <point x="132" y="687"/>
      <point x="132" y="574" type="curve" smooth="yes"/>
      <point x="132" y="482"/>
      <point x="198" y="426"/>
      <point x="267" y="374" type="curve"/>
      <point x="188" y="49" type="line"/>
      <point x="137" y="64"/>
      <point x="107" y="101"/>
      <point x="107" y="154" type="curve" smooth="yes"/>
      <point x="107" y="200"/>
      <point x="131" y="240"/>
      <point x="168" y="255" type="curve"/>
      <point x="156" y="270"/>
      <point x="139" y="279"/>
      <point x="119" y="279" type="curve" smooth="yes"/>
      <point x="68" y="279"/>
      <point x="22" y="223"/>
      <point x="22" y="162" type="curve" smooth="yes"/>
      <point x="22" y="85"/>
      <point x="88" y="18"/>
      <point x="175" y="-3" type="curve"/>
    </contour>
    <contour>
      <point x="414" y="185" type="curve" smooth="yes"/>
      <point x="414" y="106"/>
      <point x="341" y="46"/>
      <point x="244" y="43" type="curve"/>
      <point x="315" y="337" type="line"/>
      <point x="369" y="294"/>
      <point x="414" y="249"/>
    </contour>
    <contour>
      <point x="230" y="613" type="curve" smooth="yes"/>
      <point x="230" y="676"/>
      <point x="279" y="720"/>
      <point x="352" y="727" type="curve"/>
      <point x="297" y="498" type="line"/>
      <point x="258" y="531"/>
      <point x="230" y="565"/>
    </contour>
  </outline>
</glyph>
<glyph name="ampersand" format="1">
  <advance width="898"/>
  <unicode hex="0026"/>
  <outline>
    <contour>
      <point x="388" y="780" type="curve" smooth="yes"/>
      <point x="284" y="780"/>
      <point x="211" y="712"/>
      <point x="211" y="614" type="curve" smooth="yes"/>
      <point x="211" y="582"/>
      <point x="218" y="542"/>
      <point x="228" y="520" type="curve"/>
      <point x="124" y="494"/>
      <point x="59" y="405"/>
      <point x="59" y="289" type="curve" smooth="yes"/>
      <point x="59" y="119"/>
      <point x="210" y="-10"/>
      <point x="409" y="-10" type="curve" smooth="yes"/>
      <point x="613" y="-10"/>
      <point x="774" y="126"/>
      <point x="774" y="297" type="curve" smooth="yes"/>
      <point x="774" y="364"/>
      <point x="750" y="425"/>
      <point x="715" y="446" type="curve"/>
      <point x="717" y="450" type="line"/>
      <point x="830" y="453"/>
      <point x="910" y="521"/>
      <point x="910" y="614" type="curve" smooth="yes"/>
      <point x="910" y="697"/>
      <point x="849" y="758"/>
      <point x="766" y="758" type="curve" smooth="yes"/>
      <point x="709" y="758"/>
      <point x="673" y="730"/>
      <point x="673" y="686" type="curve" smooth="yes"/>
      <point x="673" y="654"/>
      <point x="692" y="635"/>
      <point x="724" y="635" type="curve" smooth="yes"/>
      <point x="790" y="635"/>
      <point x="749" y="704"/>
      <point x="795" y="704" type="curve" smooth="yes"/>
      <point x="822" y="704"/>
      <point x="847" y="673"/>
      <point x="847" y="639" type="curve" smooth="yes"/>
      <point x="847" y="583"/>
      <point x="795" y="547"/>
      <point x="715" y="547" type="curve" smooth="yes"/>
      <point x="610" y="547" type="line" smooth="yes"/>
      <point x="496" y="547"/>
      <point x="416" y="480"/>
      <point x="416" y="384" type="curve" smooth="yes"/>
      <point x="416" y="310"/>
      <point x="463" y="256"/>
      <point x="527" y="256" type="curve" smooth="yes"/>
      <point x="584" y="256"/>
      <point x="630" y="295"/>
      <point x="630" y="342" type="curve" smooth="yes"/>
      <point x="630" y="376"/>
      <point x="607" y="404"/>
      <point x="579" y="404" type="curve" smooth="yes"/>
      <point x="556" y="404"/>
      <point x="540" y="387"/>
      <point x="540" y="364" type="curve" smooth="yes"/>
      <point x="540" y="355"/>
      <point x="542" y="342"/>
      <point x="542" y="333" type="curve" smooth="yes"/>
      <point x="542" y="317"/>
      <point x="534" y="309"/>
      <point x="519" y="309" type="curve" smooth="yes"/>
      <point x="489" y="309"/>
      <point x="465" y="340"/>
      <point x="465" y="380" type="curve" smooth="yes"/>
      <point x="465" y="434"/>
      <point x="509" y="470"/>
      <point x="574" y="470" type="curve" smooth="yes"/>
      <point x="653" y="470"/>
      <point x="714" y="405"/>
      <point x="714" y="321" type="curve" smooth="yes"/>
      <point x="714" y="199"/>
      <point x="587" y="95"/>
      <point x="437" y="95" type="curve" smooth="yes"/>
      <point x="275" y="95"/>
      <point x="146" y="204"/>
      <point x="146" y="342" type="curve" smooth="yes"/>
      <point x="146" y="411"/>
      <point x="181" y="463"/>
      <point x="227" y="463" type="curve" smooth="yes"/>
      <point x="276" y="463"/>
      <point x="283" y="406"/>
      <point x="338" y="406" type="curve" smooth="yes"/>
      <point x="368" y="406"/>
      <point x="386" y="423"/>
      <point x="386" y="452" type="curve" smooth="yes"/>
      <point x="386" y="483"/>
      <point x="370" y="496"/>
      <point x="305" y="517" type="curve" smooth="yes"/>
      <point x="283" y="524"/>
      <point x="271" y="546"/>
      <point x="271" y="579" type="curve" smooth="yes"/>
      <point x="271" y="643"/>
      <point x="315" y="688"/>
      <point x="376" y="688" type="curve" smooth="yes"/>
      <point x="426" y="688"/>
      <point x="469" y="657"/>
      <point x="491" y="607" type="curve"/>
      <point x="511" y="611"/>
      <point x="524" y="635"/>
      <point x="524" y="667" type="curve" smooth="yes"/>
      <point x="524" y="734"/>
      <point x="469" y="780"/>
    </contour>
  </outline>
</glyph>
<glyph name="quotesingle" format="1">
  <advance width="207"/>
  <unicode hex="0027"/>
  <outline>
    <contour>
      <point x="183" y="564" type="line"/>
      <point x="221" y="661"/>
      <point x="275" y="779"/>
      <point x="275" y="795" type="curve" smooth="yes"/>
      <point x="275" y="816"/>
      <point x="261" y="830"/>
      <point x="239" y="830" type="curve" smooth="yes"/>
      <point x="159" y="830"/>
      <point x="175" y="724"/>
      <point x="154" y="564" type="curve"/>
    </contour>
  </outline>
</glyph>
<glyph name="four" format="1">
  <advance width="578"/>
  <unicode hex="0034"/>
  <outline>
    <contour>
      <point x="535" y="780" type="line"/>
      <point x="491" y="780" type="line"/>
      <point x="26" y="336" type="line"/>
      <point x="13" y="285" type="line"/>
      <point x="308" y="285" type="line"/>
      <point x="236" y="0" type="line"/>
      <point x="340" y="0" type="line"/>
      <point x="409" y="285" type="line"/>
      <point x="532" y="285" type="line"/>
      <point x="547" y="346" type="line"/>
      <point x="424" y="346" type="line"/>
    </contour>
    <contour>
      <point x="117" y="346" type="line"/>
      <point x="394" y="609" type="line"/>
      <point x="397" y="608" type="line"/>
      <point x="325" y="346" type="line"/>
    </contour>
  </outline>
</glyph>
<glyph name="nine" format="1">
  <advance width="634"/>
  <unicode hex="0039"/>
  <outline>
    <contour>
      <point x="113" y="501" type="curve" smooth="yes"/>
      <point x="113" y="376"/>
      <point x="197" y="292"/>
      <point x="322" y="292" type="curve" smooth="yes"/>
      <point x="371" y="292"/>
      <point x="415" y="305"/>
      <point x="459" y="332" type="curve"/>
      <point x="462" y="330" type="line"/>
      <point x="418" y="157"/>
      <point x="311" y="35"/>
      <point x="204" y="35" type="curve" smooth="yes"/>
      <point x="163" y="35"/>
      <point x="151" y="56"/>
      <point x="151" y="99" type="curve" smooth="yes"/>
      <point x="151" y="136"/>
      <point x="130" y="154"/>
      <point x="102" y="154" type="curve" smooth="yes"/>
      <point x="69" y="154"/>
      <point x="48" y="131"/>
      <point x="48" y="97" type="curve" smooth="yes"/>
      <point x="48" y="36"/>
      <point x="115" y="-10"/>
      <point x="204" y="-10" type="curve" smooth="yes"/>
      <point x="409" y="-10"/>
      <point x="601" y="236"/>
      <point x="601" y="500" type="curve" smooth="yes"/>
      <point x="601" y="672"/>
      <point x="519" y="780"/>
      <point x="388" y="780" type="curve" smooth="yes"/>
      <point x="242" y="780"/>
      <point x="113" y="650"/>
    </contour>
    <contour>
      <point x="340" y="341" type="curve"/>
      <point x="269" y="341"/>
      <point x="232" y="393"/>
      <point x="232" y="495" type="curve" smooth="yes"/>
      <point x="232" y="630"/>
      <point x="302" y="735"/>
      <point x="394" y="735" type="curve" smooth="yes"/>
      <point x="463" y="735"/>
      <point x="500" y="676"/>
      <point x="500" y="568" type="curve" smooth="yes"/>
      <point x="500" y="432"/>
      <point x="436" y="341"/>
    </contour>
  </outline>
</glyph>
<glyph name="greater" format="1">
  <advance width="621"/>
  <unicode hex="003E"/>
  <outline>
    <contour>
      <point x="122" y="126" type="line"/>
      <point x="122" y="72" type="line"/>
      <point x="580" y="304" type="line"/>
      <point x="580" y="368" type="line"/>
      <point x="122" y="600" type="line"/>
      <point x="122" y="544" type="line"/>
      <point x="535" y="336" type="line"/>
    </contour>
  </outline>
</glyph>
<glyph name="A" format="1">
  <advance width="763"/>
  <unicode hex="0041"/>
  <outline>
    <contour>
      <point x="662" y="830" type="move" name="topcap"/>
    </contour>
    <contour>
      <point x="464" y="0" type="move" name="bottom"/>
    </contour>
    <contour>
      <point x="690" y="780" type="line"/>
      <point x="606" y="780" type="line"/>
      <point x="145" y="231" type="line" smooth="yes"/>
      <point x="22" y="85"/>
      <point x="-35" y="40"/>
      <point x="-98" y="40" type="curve"/>
      <point x="-108" y="0" type="line"/>
      <point x="151" y="0" type="line"/>
      <point x="161" y="40" type="line"/>
      <point x="106" y="40"/>
      <point x="86" y="49"/>
      <point x="86" y="74" type="curve" smooth="yes"/>
      <point x="86" y="90"/>
      <point x="95" y="110"/>
      <point x="204" y="224" type="curve" smooth="yes"/>
      <point x="267" y="290" type="line"/>
      <point x="482" y="290" type="line"/>
      <point x="455" y="167" type="line" smooth="yes"/>
      <point x="431" y="58"/>
      <point x="414" y="40"/>
      <point x="336" y="40" type="curve"/>
      <point x="326" y="0" type="line"/>
      <point x="622" y="0" type="line"/>
      <point x="632" y="40" type="line"/>
      <point x="559" y="40"/>
      <point x="539" y="50"/>
      <point x="539" y="89" type="curve" smooth="yes"/>
      <point x="539" y="105"/>
      <point x="543" y="131"/>
      <point x="551" y="166" type="curve" smooth="yes"/>
    </contour>
    <contour>
      <point x="310" y="340" type="line"/>
      <point x="569" y="650" type="line"/>
      <point x="573" y="650" type="line"/>
      <point x="491" y="340" type="line"/>
    </contour>
  </outline>
</glyph>
<glyph name="E" format="1">
  <advance width="740"/>
  <unicode hex="0045"/>
  <outline>
    <contour>
      <point x="493" y="830" type="move" name="topcap"/>
    </contour>
    <contour>
      <point x="302" y="0" type="move" name="bottom"/>
    </contour>
    <contour>
      <point x="-26" y="0" type="line"/>
      <point x="597" y="0" type="line"/>
      <point x="675" y="211" type="line"/>
      <point x="628" y="211" type="line"/>
      <point x="573" y="87"/>
      <point x="508" y="43"/>
      <point x="355" y="43" type="curve" smooth="yes"/>
      <point x="251" y="43"/>
      <point x="213" y="66"/>
      <point x="213" y="114" type="curve" smooth="yes"/>
      <point x="213" y="130"/>
      <point x="216" y="148"/>
      <point x="222" y="170" type="curve" smooth="yes"/>
      <point x="279" y="385" type="line"/>
      <point x="354" y="385" type="line" smooth="yes"/>
      <point x="415" y="385"/>
      <point x="434" y="358"/>
      <point x="434" y="299" type="curve" smooth="yes"/>
      <point x="434" y="284"/>
      <point x="433" y="267"/>
      <point x="431" y="247" type="curve"/>
      <point x="471" y="247" type="line"/>
      <point x="531" y="543" type="line"/>
      <point x="494" y="543" type="line"/>
      <point x="452" y="451"/>
      <point x="426" y="429"/>
      <point x="355" y="429" type="curve" smooth="yes"/>
      <point x="292" y="429" type="line"/>
      <point x="370" y="726" type="line"/>
      <point x="500" y="726" type="line" smooth="yes"/>
      <point x="584" y="726"/>
      <point x="634" y="695"/>
      <point x="668" y="568" type="curve"/>
      <point x="706" y="568" type="line"/>
      <point x="706" y="770" type="line"/>
      <point x="160" y="770" type="line"/>
      <point x="149" y="730" type="line"/>
      <point x="221" y="730"/>
      <point x="249" y="721"/>
      <point x="249" y="677" type="curve" smooth="yes"/>
      <point x="249" y="658"/>
      <point x="244" y="633"/>
      <point x="235" y="599" type="curve" smooth="yes"/>
      <point x="119" y="158" type="line" smooth="yes"/>
      <point x="94" y="63"/>
      <point x="73" y="40"/>
      <point x="-15" y="40" type="curve"/>
    </contour>
  </outline>
</glyph>
<glyph name="F" format="1">
  <advance width="659"/>
  <unicode hex="0046"/>
  <outline>
    <contour>
      <point x="-26" y="0" type="line"/>
      <point x="324" y="0" type="line"/>
      <point x="335" y="43" type="line"/>
      <point x="245" y="43"/>
      <point x="213" y="66"/>
      <point x="213" y="114" type="curve" smooth="yes"/>
      <point x="213" y="130"/>
      <point x="216" y="148"/>
      <point x="222" y="170" type="curve" smooth="yes"/>
      <point x="279" y="385" type="line"/>
      <point x="359" y="385" type="line" smooth="yes"/>
      <point x="412" y="385"/>
      <point x="429" y="355"/>
      <point x="429" y="289" type="curve" smooth="yes"/>
      <point x="429" y="271"/>
      <point x="428" y="251"/>
      <point x="426" y="227" type="curve"/>
      <point x="466" y="227" type="line"/>
      <point x="536" y="543" type="line"/>
      <point x="499" y="543" type="line"/>
      <point x="457" y="451"/>
      <point x="431" y="429"/>
      <point x="360" y="429" type="curve" smooth="yes"/>
      <point x="292" y="429" type="line"/>
      <point x="370" y="726" type="line"/>
      <point x="500" y="726" type="line" smooth="yes"/>
      <point x="584" y="726"/>
      <point x="634" y="695"/>
      <point x="668" y="568" type="curve"/>
      <point x="706" y="568" type="line"/>
      <point x="706" y="770" type="line"/>
      <point x="160" y="770" type="line"/>
      <point x="149" y="730" type="line"/>
      <point x="221" y="730"/>
      <point x="249" y="721"/>
      <point x="249" y="677" type="curve" smooth="yes"/>
      <point x="249" y="658"/>
      <point x="244" y="633"/>
      <point x="235" y="599" type="curve" smooth="yes"/>
      <point x="119" y="158" type="line" smooth="yes"/>
      <point x="94" y="63"/>
      <point x="73" y="40"/>
      <point x="-15" y="40" type="curve"/>
    </contour>
  </outline>
</glyph>
<glyph name="X" format="1">
  <advance width="781"/>
  <unicode hex="0058"/>
  <outline>
    <contour>
      <point x="454" y="422" type="line"/>
      <point x="629" y="614" type="line" smooth="yes"/>
      <point x="709" y="702"/>
      <point x="749" y="730"/>
      <point x="807" y="730" type="curve"/>
      <point x="818" y="770" type="line"/>
      <point x="560" y="770" type="line"/>
      <point x="548" y="730" type="line"/>
      <point x="587" y="730"/>
      <point x="606" y="720"/>
      <point x="606" y="700" type="curve" smooth="yes"/>
      <point x="606" y="676"/>
      <point x="579" y="635"/>
      <point x="518" y="567" type="curve" smooth="yes"/>
      <point x="432" y="471" type="line"/>
      <point x="383" y="579" type="line" smooth="yes"/>
      <point x="362" y="626"/>
      <point x="352" y="657"/>
      <point x="352" y="680" type="curve" smooth="yes"/>
      <point x="352" y="714"/>
      <point x="373" y="730"/>
      <point x="419" y="730" type="curve"/>
      <point x="430" y="770" type="line"/>
      <point x="119" y="770" type="line"/>
      <point x="108" y="730" type="line"/>
      <point x="175" y="730"/>
      <point x="203" y="709"/>
      <point x="245" y="622" type="curve" smooth="yes"/>
      <point x="353" y="395" type="line"/>
      <point x="122" y="129" type="line" smooth="yes"/>
      <point x="55" y="52"/>
      <point x="46" y="47"/>
      <point x="-29" y="40" type="curve"/>
      <point x="-39" y="0" type="line"/>
      <point x="250" y="0" type="line"/>
      <point x="259" y="40" type="line"/>
      <point x="205" y="40"/>
      <point x="181" y="51"/>
      <point x="181" y="76" type="curve" smooth="yes"/>
      <point x="181" y="105"/>
      <point x="215" y="159"/>
      <point x="294" y="246" type="curve" smooth="yes"/>
      <point x="377" y="338" type="line"/>
      <point x="458" y="159" type="line" smooth="yes"/>
      <point x="469" y="134"/>
      <point x="476" y="107"/>
      <point x="476" y="90" type="curve" smooth="yes"/>
      <point x="476" y="56"/>
      <point x="449" y="40"/>
      <point x="392" y="40" type="curve"/>
      <point x="383" y="0" type="line"/>
      <point x="713" y="0" type="line"/>
      <point x="722" y="40" type="line"/>
      <point x="649" y="40"/>
      <point x="617" y="67"/>
      <point x="571" y="167" type="curve" smooth="yes"/>
    </contour>
  </outline>
</glyph>
<glyph name="bracketleft" format="1">
  <advance width="369"/>
  <unicode hex="005B"/>
  <outline>
    <contour>
      <point x="470" y="773" type="line"/>
      <point x="483" y="820" type="line"/>
      <point x="242" y="820" type="line"/>
      <point x="-20" y="-150" type="line"/>
      <point x="220" y="-150" type="line"/>
      <point x="233" y="-103" type="line"/>
      <point x="82" y="-103" type="line"/>
      <point x="319" y="773" type="line"/>
    </contour>
  </outline>
</glyph>
<glyph name="bracketright" format="1">
  <advance width="369"/>
  <unicode hex="005D"/>
  <outline>
    <contour>
      <point x="-89" y="-103" type="line"/>
      <point x="-102" y="-150" type="line"/>
      <point x="138" y="-150" type="line"/>
      <point x="401" y="820" type="line"/>
      <point x="160" y="820" type="line"/>
      <point x="147" y="773" type="line"/>
      <point x="298" y="773" type="line"/>
      <point x="61" y="-103" type="line"/>
    </contour>
  </outline>
</glyph>
<glyph name="e" format="1">
  <advance width="456"/>
  <unicode hex="0065"/>
  <outline>
    <contour>
      <point x="360" y="651" type="move" name="top"/>
    </contour>
    <contour>
      <point x="152" y="0" type="move" name="bottom"/>
    </contour>
    <contour>
      <point x="339" y="154" type="line"/>
      <point x="294" y="86"/>
      <point x="238" y="45"/>
      <point x="189" y="45" type="curve" smooth="yes"/>
      <point x="139" y="45"/>
      <point x="112" y="83"/>
      <point x="112" y="154" type="curve" smooth="yes"/>
      <point x="112" y="172"/>
      <point x="113" y="190"/>
      <point x="116" y="209" type="curve"/>
      <point x="294" y="249"/>
      <point x="443" y="360"/>
      <point x="443" y="453" type="curve" smooth="yes"/>
      <point x="443" y="504"/>
      <point x="398" y="540"/>
      <point x="334" y="540" type="curve" smooth="yes"/>
      <point x="182" y="540"/>
      <point x="14" y="337"/>
      <point x="14" y="153" type="curve" smooth="yes"/>
      <point x="14" y="50"/>
      <point x="66" y="-10"/>
      <point x="157" y="-10" type="curve" smooth="yes"/>
      <point x="240" y="-10"/>
      <point x="314" y="39"/>
      <point x="371" y="133" type="curve"/>
    </contour>
    <contour>
      <point x="314" y="493" type="curve" smooth="yes"/>
      <point x="337" y="493"/>
      <point x="349" y="479"/>
      <point x="349" y="451" type="curve" smooth="yes"/>
      <point x="349" y="371"/>
      <point x="254" y="289"/>
      <point x="126" y="254" type="curve"/>
      <point x="160" y="376"/>
      <point x="244" y="493"/>
    </contour>
  </outline>
</glyph>
<glyph name="g" format="1">
  <advance width="550"/>
  <unicode hex="0067"/>
  <outline>
    <contour>
      <point x="344" y="651" type="move" name="top"/>
    </contour>
    <contour>
      <point x="435" y="-73" type="curve" smooth="yes"/>
      <point x="435" y="87"/>
      <point x="131" y="28"/>
      <point x="131" y="111" type="curve" smooth="yes"/>
      <point x="131" y="132"/>
      <point x="157" y="142"/>
      <point x="220" y="147" type="curve" smooth="yes"/>
      <point x="362" y="158"/>
      <point x="449" y="250"/>
      <point x="449" y="396" type="curve" smooth="yes"/>
      <point x="449" y="421"/>
      <point x="447" y="436"/>
      <point x="440" y="454" type="curve"/>
      <point x="461" y="468"/>
      <point x="466" y="470"/>
      <point x="475" y="470" type="curve" smooth="yes"/>
      <point x="511" y="470"/>
      <point x="506" y="428"/>
      <point x="547" y="428" type="curve" smooth="yes"/>
      <point x="574" y="428"/>
      <point x="594" y="448"/>
      <point x="594" y="475" type="curve" smooth="yes"/>
      <point x="594" y="509"/>
      <point x="556" y="540"/>
      <point x="514" y="540" type="curve" smooth="yes"/>
      <point x="484" y="540"/>
      <point x="454" y="522"/>
      <point x="423" y="487" type="curve"/>
      <point x="389" y="524"/>
      <point x="350" y="541"/>
      <point x="299" y="541" type="curve" smooth="yes"/>
      <point x="170" y="541"/>
      <point x="61" y="437"/>
      <point x="61" y="313" type="curve" smooth="yes"/>
      <point x="61" y="255"/>
      <point x="86" y="210"/>
      <point x="137" y="174" type="curve"/>
      <point x="135" y="170" type="line"/>
      <point x="47" y="144"/>
      <point x="18" y="119"/>
      <point x="18" y="81" type="curve" smooth="yes"/>
      <point x="18" y="21"/>
      <point x="84" y="-8"/>
      <point x="229" y="-33" type="curve" smooth="yes"/>
      <point x="310" y="-47"/>
      <point x="357" y="-80"/>
      <point x="357" y="-117" type="curve" smooth="yes"/>
      <point x="357" y="-163"/>
      <point x="281" y="-215"/>
      <point x="173" y="-215" type="curve" smooth="yes"/>
      <point x="75" y="-215"/>
      <point x="14" y="-181"/>
      <point x="14" y="-125" type="curve" smooth="yes"/>
      <point x="14" y="-84"/>
      <point x="34" y="-53"/>
      <point x="70" y="-38" type="curve"/>
      <point x="48" y="-27"/>
      <point x="35" y="-24"/>
      <point x="19" y="-24" type="curve" smooth="yes"/>
      <point x="-35" y="-24"/>
      <point x="-75" y="-65"/>
      <point x="-75" y="-119" type="curve" smooth="yes"/>
      <point x="-75" y="-203"/>
      <point x="24" y="-260"/>
      <point x="170" y="-260" type="curve" smooth="yes"/>
      <point x="332" y="-260"/>
      <point x="435" y="-188"/>
    </contour>
    <contour>
      <point x="225" y="191" type="curve" smooth="yes"/>
      <point x="183" y="191"/>
      <point x="155" y="226"/>
      <point x="155" y="276" type="curve" smooth="yes"/>
      <point x="155" y="381"/>
      <point x="227" y="501"/>
      <point x="289" y="501" type="curve" smooth="yes"/>
      <point x="328" y="501"/>
      <point x="354" y="467"/>
      <point x="354" y="414" type="curve" smooth="yes"/>
      <point x="354" y="302"/>
      <point x="289" y="191"/>
    </contour>
  </outline>
</glyph>
<glyph name="i" format="1">
  <advance width="344"/>
  <unicode hex="0069"/>
  <outline>
    <contour>
      <point x="107" y="0" type="move" name="bottom"/>
    </contour>
    <contour>
      <point x="278" y="651" type="move" name="top"/>
    </contour>
    <contour>
      <point x="86" y="202" type="line" smooth="yes"/>
      <point x="62" y="134"/>
      <point x="49" y="93"/>
      <point x="49" y="55" type="curve" smooth="yes"/>
      <point x="49" y="9"/>
      <point x="68" y="-10"/>
      <point x="107" y="-10" type="curve" smooth="yes"/>
      <point x="195" y="-10"/>
      <point x="275" y="89"/>
      <point x="307" y="154" type="curve"/>
      <point x="277" y="171" type="line"/>
      <point x="262" y="144"/>
      <point x="209" y="67"/>
      <point x="170" y="67" type="curve" smooth="yes"/>
      <point x="155" y="67"/>
      <point x="149" y="78"/>
      <point x="149" y="90" type="curve" smooth="yes"/>
      <point x="149" y="109"/>
      <point x="165" y="154"/>
      <point x="170" y="168" type="curve" smooth="yes"/>
      <point x="207" y="269" type="line" smooth="yes"/>
      <point x="244" y="371"/>
      <point x="270" y="434"/>
      <point x="270" y="473" type="curve" smooth="yes"/>
      <point x="270" y="523"/>
      <point x="253" y="540"/>
      <point x="220" y="540" type="curve" smooth="yes"/>
      <point x="151" y="540"/>
      <point x="58" y="447"/>
      <point x="27" y="387" type="curve"/>
      <point x="56" y="369" type="line"/>
      <point x="67" y="390"/>
      <point x="115" y="454"/>
      <point x="143" y="454" type="curve" smooth="yes"/>
      <point x="150" y="454"/>
      <point x="157" y="449"/>
      <point x="157" y="431" type="curve" smooth="yes"/>
      <point x="157" y="413"/>
      <point x="150" y="382"/>
      <point x="131" y="330" type="curve" smooth="yes"/>
    </contour>
    <contour>
      <point x="278" y="704" type="curve" smooth="yes"/>
      <point x="313" y="704"/>
      <point x="342" y="731"/>
      <point x="342" y="766" type="curve" smooth="yes"/>
      <point x="342" y="800"/>
      <point x="315" y="830"/>
      <point x="278" y="830" type="curve" smooth="yes"/>
      <point x="243" y="830"/>
      <point x="216" y="801"/>
      <point x="216" y="765" type="curve" smooth="yes"/>
      <point x="216" y="729"/>
      <point x="245" y="704"/>
    </contour>
  </outline>
</glyph>
<glyph name="o" format="1">
  <advance width="523"/>
  <unicode hex="006F"/>
  <outline>
    <contour>
      <point x="351" y="651" type="move" name="top"/>
    </contour>
    <contour>
      <point x="180" y="0" type="move" name="bottom"/>
    </contour>
    <contour>
      <point x="187" y="-10" type="curve" smooth="yes"/>
      <point x="331" y="-10"/>
      <point x="476" y="180"/>
      <point x="476" y="348" type="curve" smooth="yes"/>
      <point x="476" y="464"/>
      <point x="407" y="540"/>
      <point x="311" y="540" type="curve" smooth="yes"/>
      <point x="165" y="540"/>
      <point x="24" y="365"/>
      <point x="24" y="191" type="curve" smooth="yes"/>
      <point x="24" y="65"/>
      <point x="97" y="-10"/>
    </contour>
    <contour>
      <point x="193" y="40" type="curve" smooth="yes"/>
      <point x="156" y="40"/>
      <point x="129" y="68"/>
      <point x="129" y="142" type="curve" smooth="yes"/>
      <point x="129" y="290"/>
      <point x="221" y="493"/>
      <point x="311" y="493" type="curve" smooth="yes"/>
      <point x="353" y="493"/>
      <point x="380" y="470"/>
      <point x="380" y="400" type="curve" smooth="yes"/>
      <point x="380" y="249"/>
      <point x="283" y="40"/>
    </contour>
  </outline>
</glyph>
<glyph name="r" format="1">
  <advance width="463"/>
  <unicode hex="0072"/>
  <outline>
    <contour>
      <point x="329" y="651" type="move" name="top"/>
    </contour>
    <contour>
      <point x="76" y="0" type="move" name="bottom"/>
    </contour>
    <contour>
      <point x="47" y="378" type="line"/>
      <point x="64" y="416"/>
      <point x="118" y="462"/>
      <point x="145" y="462" type="curve" smooth="yes"/>
      <point x="155" y="462"/>
      <point x="160" y="455"/>
      <point x="160" y="440" type="curve" smooth="yes"/>
      <point x="160" y="412"/>
      <point x="148" y="366"/>
      <point x="97" y="207" type="curve" smooth="yes"/>
      <point x="32" y="0" type="line"/>
      <point x="125" y="0" type="line"/>
      <point x="170" y="138" type="line" smooth="yes"/>
      <point x="229" y="319"/>
      <point x="317" y="463"/>
      <point x="368" y="463" type="curve" smooth="yes"/>
      <point x="392" y="463"/>
      <point x="396" y="426"/>
      <point x="438" y="426" type="curve" smooth="yes"/>
      <point x="472" y="426"/>
      <point x="497" y="451"/>
      <point x="497" y="486" type="curve" smooth="yes"/>
      <point x="497" y="522"/>
      <point x="467" y="550"/>
      <point x="429" y="550" type="curve" smooth="yes"/>
      <point x="369" y="550"/>
      <point x="279" y="473"/>
      <point x="246" y="395" type="curve"/>
      <point x="243" y="398" type="line"/>
      <point x="248" y="424"/>
      <point x="250" y="443"/>
      <point x="250" y="464" type="curve" smooth="yes"/>
      <point x="250" y="517"/>
      <point x="236" y="540"/>
      <point x="204" y="540" type="curve" smooth="yes"/>
      <point x="151" y="540"/>
      <point x="51" y="458"/>
      <point x="21" y="391" type="curve"/>
    </contour>
  </outline>
</glyph>
<glyph name="v" format="1">
  <advance width="578"/>
  <unicode hex="0076"/>
  <outline>
    <contour>
      <point x="461" y="357" type="curve" smooth="yes"/>
      <point x="461" y="238"/>
      <point x="350" y="59"/>
      <point x="276" y="59" type="curve" smooth="yes"/>
      <point x="237" y="59"/>
      <point x="210" y="107"/>
      <point x="210" y="178" type="curve" smooth="yes"/>
      <point x="210" y="269"/>
      <point x="254" y="389"/>
      <point x="315" y="463" type="curve" smooth="yes"/>
      <point x="355" y="511"/>
      <point x="356" y="512"/>
      <point x="356" y="523" type="curve" smooth="yes"/>
      <point x="356" y="534"/>
      <point x="349" y="540"/>
      <point x="336" y="540" type="curve" smooth="yes"/>
      <point x="320" y="540"/>
      <point x="316" y="537"/>
      <point x="288" y="512" type="curve" smooth="yes"/>
      <point x="277" y="501"/>
      <point x="268" y="497"/>
      <point x="254" y="497" type="curve" smooth="yes"/>
      <point x="212" y="497"/>
      <point x="196" y="540"/>
      <point x="143" y="540" type="curve" smooth="yes"/>
      <point x="77" y="540"/>
      <point x="19" y="482"/>
      <point x="19" y="416" type="curve" smooth="yes"/>
      <point x="19" y="378"/>
      <point x="39" y="355"/>
      <point x="73" y="355" type="curve" smooth="yes"/>
      <point x="102" y="355"/>
      <point x="123" y="372"/>
      <point x="123" y="396" type="curve" smooth="yes"/>
      <point x="123" y="428"/>
      <point x="88" y="437"/>
      <point x="88" y="462" type="curve" smooth="yes"/>
      <point x="88" y="472"/>
      <point x="94" y="479"/>
      <point x="105" y="479" type="curve" smooth="yes"/>
      <point x="133" y="479"/>
      <point x="149" y="427"/>
      <point x="222" y="427" type="curve"/>
      <point x="224" y="424" type="line"/>
      <point x="148" y="315"/>
      <point x="105" y="207"/>
      <point x="105" y="131" type="curve" smooth="yes"/>
      <point x="105" y="50"/>
      <point x="159" y="-10"/>
      <point x="232" y="-10" type="curve" smooth="yes"/>
      <point x="379" y="-10"/>
      <point x="548" y="233"/>
      <point x="548" y="445" type="curve" smooth="yes"/>
      <point x="548" y="512"/>
      <point x="531" y="540"/>
      <point x="490" y="540" type="curve" smooth="yes"/>
      <point x="456" y="540"/>
      <point x="438" y="520"/>
      <point x="438" y="483" type="curve" smooth="yes"/>
      <point x="438" y="442"/>
      <point x="461" y="411"/>
    </contour>
  </outline>
</glyph>
<glyph name="w" format="1">
  <advance width="850"/>
  <unicode hex="0077"/>
  <outline>
    <contour>
      <point x="565" y="651" type="move" name="top"/>
    </contour>
    <contour>
      <point x="407" y="97" type="curve"/>
      <point x="428" y="27"/>
      <point x="470" y="-10"/>
      <point x="525" y="-10" type="curve" smooth="yes"/>
      <point x="663" y="-10"/>
      <point x="816" y="226"/>
      <point x="816" y="440" type="curve" smooth="yes"/>
      <point x="816" y="511"/>
      <point x="799" y="540"/>
      <point x="758" y="540" type="curve" smooth="yes"/>
      <point x="724" y="540"/>
      <point x="706" y="520"/>
      <point x="706" y="483" type="curve" smooth="yes"/>
      <point x="706" y="440"/>
      <point x="729" y="416"/>
      <point x="729" y="354" type="curve" smooth="yes"/>
      <point x="729" y="229"/>
      <point x="638" y="75"/>
      <point x="564" y="75" type="curve" smooth="yes"/>
      <point x="525" y="75"/>
      <point x="489" y="120"/>
      <point x="477" y="183" type="curve"/>
      <point x="550" y="287"/>
      <point x="590" y="386"/>
      <point x="590" y="457" type="curve" smooth="yes"/>
      <point x="590" y="516"/>
      <point x="562" y="540"/>
      <point x="533" y="540" type="curve" smooth="yes"/>
      <point x="461" y="540"/>
      <point x="389" y="393"/>
      <point x="389" y="248" type="curve" smooth="yes"/>
      <point x="389" y="224"/>
      <point x="391" y="193"/>
      <point x="394" y="165" type="curve"/>
      <point x="340" y="101"/>
      <point x="290" y="64"/>
      <point x="254" y="64" type="curve" smooth="yes"/>
      <point x="216" y="64"/>
      <point x="193" y="103"/>
      <point x="193" y="168" type="curve" smooth="yes"/>
      <point x="193" y="256"/>
      <point x="236" y="373"/>
      <point x="313" y="463" type="curve" smooth="yes"/>
      <point x="350" y="506"/>
      <point x="354" y="511"/>
      <point x="354" y="520" type="curve" smooth="yes"/>
      <point x="354" y="533"/>
      <point x="347" y="540"/>
      <point x="333" y="540" type="curve" smooth="yes"/>
      <point x="314" y="540"/>
      <point x="300" y="527"/>
      <point x="286" y="512" type="curve" smooth="yes"/>
      <point x="274" y="500"/>
      <point x="267" y="497"/>
      <point x="256" y="497" type="curve" smooth="yes"/>
      <point x="216" y="497"/>
      <point x="200" y="540"/>
      <point x="145" y="540" type="curve" smooth="yes"/>
      <point x="80" y="540"/>
      <point x="22" y="481"/>
      <point x="22" y="416" type="curve" smooth="yes"/>
      <point x="22" y="378"/>
      <point x="42" y="355"/>
      <point x="76" y="355" type="curve" smooth="yes"/>
      <point x="105" y="355"/>
      <point x="126" y="372"/>
      <point x="126" y="396" type="curve" smooth="yes"/>
      <point x="126" y="428"/>
      <point x="91" y="437"/>
      <point x="91" y="462" type="curve" smooth="yes"/>
      <point x="91" y="473"/>
      <point x="97" y="479"/>
      <point x="107" y="479" type="curve" smooth="yes"/>
      <point x="137" y="479"/>
      <point x="152" y="427"/>
      <point x="225" y="427" type="curve"/>
      <point x="227" y="424" type="line"/>
      <point x="141" y="308"/>
      <point x="98" y="208"/>
      <point x="98" y="125" type="curve" smooth="yes"/>
      <point x="98" y="40"/>
      <point x="142" y="-10"/>
      <point x="215" y="-10" type="curve" smooth="yes"/>
      <point x="280" y="-10"/>
      <point x="348" y="28"/>
    </contour>
    <contour>
      <point x="463" y="247" type="curve"/>
      <point x="459" y="262"/>
      <point x="458" y="278"/>
      <point x="458" y="296" type="curve" smooth="yes"/>
      <point x="458" y="385"/>
      <point x="481" y="458"/>
      <point x="507" y="458" type="curve" smooth="yes"/>
      <point x="518" y="458"/>
      <point x="522" y="444"/>
      <point x="522" y="420" type="curve" smooth="yes"/>
      <point x="522" y="362"/>
      <point x="498" y="304"/>
    </contour>
  </outline>
</glyph>
<glyph name="braceleft" format="1">
  <advance width="336"/>
  <unicode hex="007B"/>
  <outline>
    <contour>
      <point x="179" y="198" type="line" smooth="yes"/>
      <point x="186" y="224"/>
      <point x="190" y="247"/>
      <point x="190" y="266" type="curve" smooth="yes"/>
      <point x="190" y="306"/>
      <point x="172" y="330"/>
      <point x="120" y="340" type="curve"/>
      <point x="121" y="345" type="line"/>
      <point x="211" y="363"/>
      <point x="239" y="419"/>
      <point x="261" y="501" type="curve" smooth="yes"/>
      <point x="309" y="680" type="line" smooth="yes"/>
      <point x="328" y="751"/>
      <point x="360" y="791"/>
      <point x="426" y="807" type="curve"/>
      <point x="432" y="830" type="line"/>
      <point x="289" y="830"/>
      <point x="249" y="786"/>
      <point x="214" y="659" type="curve" smooth="yes"/>
      <point x="166" y="484" type="line" smooth="yes"/>
      <point x="145" y="408"/>
      <point x="123" y="370"/>
      <point x="43" y="355" type="curve"/>
      <point x="36" y="330" type="line"/>
      <point x="82" y="326"/>
      <point x="98" y="293"/>
      <point x="98" y="254" type="curve" smooth="yes"/>
      <point x="98" y="237"/>
      <point x="95" y="218"/>
      <point x="90" y="200" type="curve" smooth="yes"/>
      <point x="37" y="4" type="line" smooth="yes"/>
      <point x="29" y="-25"/>
      <point x="25" y="-48"/>
      <point x="25" y="-68" type="curve" smooth="yes"/>
      <point x="25" y="-131"/>
      <point x="68" y="-150"/>
      <point x="171" y="-150" type="curve"/>
      <point x="177" y="-128" type="line"/>
      <point x="133" y="-115"/>
      <point x="116" y="-93"/>
      <point x="116" y="-58" type="curve" smooth="yes"/>
      <point x="116" y="-42"/>
      <point x="120" y="-22"/>
      <point x="126" y="0" type="curve" smooth="yes"/>
    </contour>
  </outline>
</glyph>
<glyph name="cent" format="1">
  <advance width="468"/>
  <unicode hex="00A2"/>
  <outline>
    <contour>
      <point x="346" y="181" type="line"/>
      <point x="306" y="105"/>
      <point x="244" y="49"/>
      <point x="197" y="49" type="curve" smooth="yes"/>
      <point x="153" y="49"/>
      <point x="127" y="88"/>
      <point x="127" y="152" type="curve" smooth="yes"/>
      <point x="127" y="311"/>
      <point x="229" y="493"/>
      <point x="318" y="493" type="curve" smooth="yes"/>
      <point x="334" y="493"/>
      <point x="342" y="488"/>
      <point x="342" y="479" type="curve" smooth="yes"/>
      <point x="342" y="470"/>
      <point x="334" y="460"/>
      <point x="334" y="443" type="curve" smooth="yes"/>
      <point x="334" y="415"/>
      <point x="356" y="393"/>
      <point x="386" y="393" type="curve" smooth="yes"/>
      <point x="416" y="393"/>
      <point x="438" y="416"/>
      <point x="438" y="449" type="curve" smooth="yes"/>
      <point x="438" y="495"/>
      <point x="400" y="531"/>
      <point x="348" y="539" type="curve"/>
      <point x="400" y="698" type="line"/>
      <point x="348" y="698" type="line"/>
      <point x="294" y="536" type="line"/>
      <point x="162" y="507"/>
      <point x="22" y="317"/>
      <point x="22" y="153" type="curve" smooth="yes"/>
      <point x="22" y="71"/>
      <point x="61" y="13"/>
      <point x="124" y="-4" type="curve"/>
      <point x="79" y="-147" type="line"/>
      <point x="131" y="-147" type="line"/>
      <point x="175" y="-9" type="line"/>
      <point x="255" y="-5"/>
      <point x="328" y="55"/>
      <point x="381" y="161" type="curve"/>
    </contour>
  </outline>
</glyph>
<glyph name="sterling" format="1">
  <advance width="682"/>
  <unicode hex="00A3"/>
  <outline>
    <contour>
      <point x="511" y="780" type="curve" smooth="yes"/>
      <point x="347" y="780"/>
      <point x="228" y="650"/>
      <point x="228" y="470" type="curve" smooth="yes"/>
      <point x="228" y="431" type="line"/>
      <point x="108" y="431" type="line"/>
      <point x="94" y="381" type="line"/>
      <point x="233" y="381" type="line"/>
      <point x="236" y="356"/>
      <point x="237" y="328"/>
      <point x="237" y="276" type="curve" smooth="yes"/>
      <point x="237" y="211"/>
      <point x="230" y="173"/>
      <point x="211" y="132" type="curve"/>
      <point x="179" y="153"/>
      <point x="143" y="165"/>
      <point x="108" y="165" type="curve" smooth="yes"/>
      <point x="37" y="165"/>
      <point x="-18" y="119"/>
      <point x="-18" y="58" type="curve" smooth="yes"/>
      <point x="-18" y="14"/>
      <point x="10" y="-10"/>
      <point x="63" y="-10" type="curve" smooth="yes"/>
      <point x="119" y="-10"/>
      <point x="183" y="18"/>
      <point x="220" y="59" type="curve"/>
      <point x="307" y="7"/>
      <point x="352" y="-10"/>
      <point x="406" y="-10" type="curve" smooth="yes"/>
      <point x="505" y="-10"/>
      <point x="569" y="45"/>
      <point x="598" y="154" type="curve"/>
      <point x="589" y="158" type="line"/>
      <point x="540" y="110"/>
      <point x="489" y="89"/>
      <point x="422" y="89" type="curve" smooth="yes"/>
      <point x="379" y="89"/>
      <point x="309" y="98"/>
      <point x="260" y="111" type="curve"/>
      <point x="312" y="177"/>
      <point x="346" y="285"/>
      <point x="346" y="381" type="curve"/>
      <point x="550" y="381" type="line"/>
      <point x="564" y="431" type="line"/>
      <point x="347" y="431" type="line"/>
      <point x="347" y="534" type="line" smooth="yes"/>
      <point x="347" y="659"/>
      <point x="399" y="729"/>
      <point x="493" y="729" type="curve" smooth="yes"/>
      <point x="547" y="729"/>
      <point x="574" y="708"/>
      <point x="574" y="665" type="curve" smooth="yes"/>
      <point x="574" y="639"/>
      <point x="561" y="602"/>
      <point x="549" y="593" type="curve"/>
      <point x="555" y="586"/>
      <point x="575" y="581"/>
      <point x="591" y="581" type="curve" smooth="yes"/>
      <point x="640" y="581"/>
      <point x="675" y="620"/>
      <point x="675" y="675" type="curve" smooth="yes"/>
      <point x="675" y="739"/>
      <point x="611" y="780"/>
    </contour>
    <contour>
      <point x="181" y="83" type="curve"/>
      <point x="152" y="58"/>
      <point x="121" y="45"/>
      <point x="88" y="45" type="curve" smooth="yes"/>
      <point x="61" y="45"/>
      <point x="48" y="53"/>
      <point x="48" y="70" type="curve" smooth="yes"/>
      <point x="48" y="93"/>
      <point x="70" y="109"/>
      <point x="101" y="109" type="curve" smooth="yes"/>
      <point x="123" y="109"/>
      <point x="148" y="101"/>
    </contour>
  </outline>
</glyph>
<glyph name="brokenbar" format="1">
  <advance width="338"/>
  <unicode hex="00A6"/>
  <outline>
    <contour>
      <point x="122" y="750" type="line"/>
      <point x="122" y="365" type="line"/>
      <point x="202" y="365" type="line"/>
      <point x="202" y="750" type="line"/>
    </contour>
    <contour>
      <point x="122" y="205" type="line"/>
      <point x="122" y="-180" type="line"/>
      <point x="202" y="-180" type="line"/>
      <point x="202" y="205" type="line"/>
    </contour>
  </outline>
</glyph>
<glyph name="ordfeminine" format="1">
  <advance width="379"/>
  <unicode hex="00AA"/>
  <outline>
    <contour>
      <point x="293" y="749" type="curve" smooth="yes"/>
      <point x="306" y="749"/>
      <point x="315" y="741"/>
      <point x="315" y="718" type="curve" smooth="yes"/>
      <point x="315" y="661"/>
      <point x="261" y="547"/>
      <point x="218" y="547" type="curve" smooth="yes"/>
      <point x="202" y="547"/>
      <point x="191" y="562"/>
      <point x="191" y="589" type="curve" smooth="yes"/>
      <point x="191" y="649"/>
      <point x="248" y="749"/>
    </contour>
    <contour>
      <point x="339" y="748" type="line"/>
      <point x="331" y="770"/>
      <point x="318" y="780"/>
      <point x="295" y="780" type="curve" smooth="yes"/>
      <point x="219" y="780"/>
      <point x="129" y="669"/>
      <point x="129" y="581" type="curve" smooth="yes"/>
      <point x="129" y="533"/>
      <point x="155" y="507"/>
      <point x="191" y="507" type="curve" smooth="yes"/>
      <point x="226" y="507"/>
      <point x="263" y="532"/>
      <point x="281" y="566" type="curve"/>
      <point x="285" y="566" type="line"/>
      <point x="284" y="555"/>
      <point x="283" y="545"/>
      <point x="283" y="538" type="curve" smooth="yes"/>
      <point x="283" y="516"/>
      <point x="292" y="507"/>
      <point x="309" y="507" type="curve" smooth="yes"/>
      <point x="339" y="507"/>
      <point x="378" y="536"/>
      <point x="408" y="584" type="curve"/>
      <point x="395" y="599" type="line"/>
      <point x="373" y="568"/>
      <point x="356" y="548"/>
      <point x="345" y="548" type="curve" smooth="yes"/>
      <point x="338" y="548"/>
      <point x="336" y="555"/>
      <point x="336" y="562" type="curve" smooth="yes"/>
      <point x="336" y="583"/>
      <point x="355" y="650"/>
      <point x="373" y="699" type="curve" smooth="yes"/>
      <point x="401" y="775" type="line"/>
      <point x="350" y="775" type="line"/>
    </contour>
  </outline>
</glyph>
<glyph name="degree" format="1">
  <advance width="342"/>
  <unicode hex="00B0"/>
  <outline>
    <contour>
      <point x="139" y="660" type="curve" smooth="yes"/>
      <point x="139" y="594"/>
      <point x="193" y="540"/>
      <point x="259" y="540" type="curve" smooth="yes"/>
      <point x="325" y="540"/>
      <point x="379" y="594"/>
      <point x="379" y="660" type="curve" smooth="yes"/>
      <point x="379" y="726"/>
      <point x="325" y="780"/>
      <point x="259" y="780" type="curve" smooth="yes"/>
      <point x="193" y="780"/>
      <point x="139" y="726"/>
    </contour>
    <contour>
      <point x="169" y="660" type="curve" smooth="yes"/>
      <point x="169" y="709"/>
      <point x="210" y="749"/>
      <point x="259" y="749" type="curve" smooth="yes"/>
      <point x="308" y="749"/>
      <point x="348" y="709"/>
      <point x="348" y="660" type="curve" smooth="yes"/>
      <point x="348" y="611"/>
      <point x="308" y="570"/>
      <point x="259" y="570" type="curve" smooth="yes"/>
      <point x="210" y="570"/>
      <point x="169" y="611"/>
    </contour>
  </outline>
</glyph>
<glyph name="twosuperior" format="1">
  <advance width="282"/>
  <unicode hex="00B2"/>
  <outline>
    <contour>
      <point x="163" y="511" type="line"/>
      <point x="285" y="595"/>
      <point x="333" y="653"/>
      <point x="333" y="707" type="curve" smooth="yes"/>
      <point x="333" y="751"/>
      <point x="298" y="781"/>
      <point x="244" y="781" type="curve" smooth="yes"/>
      <point x="184" y="781"/>
      <point x="135" y="742"/>
      <point x="135" y="695" type="curve" smooth="yes"/>
      <point x="135" y="665"/>
      <point x="154" y="645"/>
      <point x="183" y="645" type="curve" smooth="yes"/>
      <point x="200" y="645"/>
      <point x="213" y="653"/>
      <point x="218" y="667" type="curve"/>
      <point x="194" y="667"/>
      <point x="180" y="681"/>
      <point x="180" y="705" type="curve" smooth="yes"/>
      <point x="180" y="732"/>
      <point x="205" y="754"/>
      <point x="236" y="754" type="curve" smooth="yes"/>
      <point x="264" y="754"/>
      <point x="281" y="736"/>
      <point x="281" y="708" type="curve" smooth="yes"/>
      <point x="281" y="653"/>
      <point x="234" y="596"/>
      <point x="100" y="489" type="curve"/>
      <point x="97" y="468" type="line"/>
      <point x="282" y="468" type="line"/>
      <point x="307" y="537" type="line"/>
      <point x="288" y="537" type="line"/>
      <point x="273" y="514"/>
      <point x="261" y="507"/>
      <point x="235" y="507" type="curve" smooth="yes"/>
      <point x="163" y="507" type="line"/>
    </contour>
  </outline>
</glyph>
<glyph name="threesuperior" format="1">
  <advance width="287"/>
  <unicode hex="00B3"/>
  <outline>
    <contour>
      <point x="258" y="556" type="curve" smooth="yes"/>
      <point x="258" y="591"/>
      <point x="239" y="618"/>
      <point x="213" y="618" type="curve" smooth="yes"/>
      <point x="204" y="618"/>
      <point x="190" y="615"/>
      <point x="182" y="615" type="curve" smooth="yes"/>
      <point x="173" y="615"/>
      <point x="169" y="618"/>
      <point x="169" y="623" type="curve" smooth="yes"/>
      <point x="169" y="659"/>
      <point x="276" y="622"/>
      <point x="276" y="710" type="curve" smooth="yes"/>
      <point x="276" y="741"/>
      <point x="264" y="755"/>
      <point x="240" y="755" type="curve" smooth="yes"/>
      <point x="212" y="755"/>
      <point x="192" y="739"/>
      <point x="192" y="718" type="curve" smooth="yes"/>
      <point x="192" y="702"/>
      <point x="201" y="692"/>
      <point x="217" y="692" type="curve"/>
      <point x="213" y="683"/>
      <point x="202" y="677"/>
      <point x="190" y="677" type="curve" smooth="yes"/>
      <point x="166" y="677"/>
      <point x="151" y="692"/>
      <point x="151" y="714" type="curve" smooth="yes"/>
      <point x="151" y="752"/>
      <point x="190" y="780"/>
      <point x="243" y="780" type="curve" smooth="yes"/>
      <point x="293" y="780"/>
      <point x="325" y="756"/>
      <point x="325" y="718" type="curve" smooth="yes"/>
      <point x="325" y="681"/>
      <point x="293" y="645"/>
      <point x="252" y="636" type="curve"/>
      <point x="252" y="632" type="line"/>
      <point x="289" y="623"/>
      <point x="310" y="596"/>
      <point x="310" y="562" type="curve" smooth="yes"/>
      <point x="310" y="508"/>
      <point x="255" y="464"/>
      <point x="186" y="464" type="curve" smooth="yes"/>
      <point x="134" y="464"/>
      <point x="98" y="489"/>
      <point x="98" y="526" type="curve" smooth="yes"/>
      <point x="98" y="556"/>
      <point x="123" y="582"/>
      <point x="152" y="582" type="curve" smooth="yes"/>
      <point x="166" y="582"/>
      <point x="178" y="574"/>
      <point x="180" y="564" type="curve"/>
      <point x="160" y="564"/>
      <point x="143" y="545"/>
      <point x="143" y="522" type="curve" smooth="yes"/>
      <point x="143" y="501"/>
      <point x="160" y="490"/>
      <point x="189" y="490" type="curve" smooth="yes"/>
      <point x="230" y="490"/>
      <point x="258" y="516"/>
    </contour>
  </outline>
</glyph>
<glyph name="paragraph" format="1">
  <advance width="548"/>
  <unicode hex="00B6"/>
  <outline>
    <contour>
      <point x="480" y="573" type="line" smooth="yes"/>
      <point x="517" y="722"/>
      <point x="531" y="732"/>
      <point x="592" y="732" type="curve"/>
      <point x="602" y="770" type="line"/>
      <point x="436" y="770" type="line" smooth="yes"/>
      <point x="243" y="770"/>
      <point x="102" y="672"/>
      <point x="102" y="501" type="curve" smooth="yes"/>
      <point x="102" y="383"/>
      <point x="192" y="332"/>
      <point x="283" y="332" type="curve" smooth="yes"/>
      <point x="297" y="332"/>
      <point x="312" y="333"/>
      <point x="326" y="336" type="curve"/>
      <point x="210" y="-113" type="line" smooth="yes"/>
      <point x="196" y="-165"/>
      <point x="170" y="-200"/>
      <point x="139" y="-200" type="curve" smooth="yes"/>
      <point x="87" y="-200"/>
      <point x="113" y="-130"/>
      <point x="57" y="-130" type="curve" smooth="yes"/>
      <point x="26" y="-130"/>
      <point x="8" y="-151"/>
      <point x="8" y="-184" type="curve" smooth="yes"/>
      <point x="8" y="-227"/>
      <point x="49" y="-260"/>
      <point x="104" y="-260" type="curve" smooth="yes"/>
      <point x="218" y="-260"/>
      <point x="286" y="-198"/>
      <point x="354" y="73" type="curve" smooth="yes"/>
    </contour>
  </outline>
</glyph>
<glyph name="multiply" format="1">
  <advance width="543"/>
  <unicode hex="00D7"/>
  <outline>
    <contour>
      <point x="463" y="183" type="line"/>
      <point x="118" y="528" type="line"/>
      <point x="83" y="493" type="line"/>
      <point x="428" y="148" type="line"/>
    </contour>
    <contour>
      <point x="119" y="147" type="line"/>
      <point x="464" y="492" type="line"/>
      <point x="427" y="529" type="line"/>
      <point x="82" y="184" type="line"/>
    </contour>
  </outline>
</glyph>
<glyph name="Oslash" format="1">
  <advance width="820"/>
  <unicode hex="00D8"/>
  <outline>
    <contour>
      <point x="47" y="-62" type="line"/>
      <point x="115" y="-62" type="line"/>
      <point x="818" y="828" type="line"/>
      <point x="749" y="828" type="line"/>
    </contour>
    <component base="O"/>
  </outline>
</glyph>
<glyph name="Thorn" format="1">
  <advance width="705"/>
  <unicode hex="00DE"/>
  <outline>
    <contour>
      <point x="343" y="613" type="line" smooth="yes"/>
      <point x="373" y="718"/>
      <point x="393" y="732"/>
      <point x="512" y="732" type="curve"/>
      <point x="523" y="770" type="line"/>
      <point x="170" y="770" type="line"/>
      <point x="159" y="732" type="line"/>
      <point x="230" y="730"/>
      <point x="250" y="719"/>
      <point x="250" y="682" type="curve" smooth="yes"/>
      <point x="250" y="667"/>
      <point x="247" y="647"/>
      <point x="239" y="618" type="curve" smooth="yes"/>
      <point x="114" y="152" type="line" smooth="yes"/>
      <point x="89" y="58"/>
      <point x="68" y="41"/>
      <point x="-25" y="38" type="curve"/>
      <point x="-36" y="0" type="line"/>
      <point x="316" y="0" type="line"/>
      <point x="327" y="38" type="line"/>
      <point x="236" y="38"/>
      <point x="209" y="50"/>
      <point x="209" y="93" type="curve" smooth="yes"/>
      <point x="209" y="108"/>
      <point x="212" y="127"/>
      <point x="220" y="157" type="curve" smooth="yes"/>
      <point x="225" y="176" type="line"/>
      <point x="315" y="176" type="line" smooth="yes"/>
      <point x="543" y="176"/>
      <point x="688" y="273"/>
      <point x="688" y="425" type="curve" smooth="yes"/>
      <point x="688" y="539"/>
      <point x="607" y="596"/>
      <point x="447" y="596" type="curve" smooth="yes"/>
      <point x="338" y="596" type="line"/>
    </contour>
    <contour>
      <point x="321" y="532" type="line" smooth="yes"/>
      <point x="324" y="543"/>
      <point x="332" y="549"/>
      <point x="342" y="549" type="curve" smooth="yes"/>
      <point x="434" y="549" type="line" smooth="yes"/>
      <point x="525" y="549"/>
      <point x="561" y="520"/>
      <point x="561" y="446" type="curve" smooth="yes"/>
      <point x="561" y="312"/>
      <point x="463" y="226"/>
      <point x="310" y="226" type="curve" smooth="yes"/>
      <point x="239" y="226" type="line"/>
    </contour>
  </outline>
</glyph>
<glyph name="oslash" format="1">
  <advance width="523"/>
  <unicode hex="00F8"/>
  <outline>
    <contour>
      <point x="187" y="-10" type="curve" smooth="yes"/>
      <point x="331" y="-10"/>
      <point x="476" y="180"/>
      <point x="476" y="348" type="curve" smooth="yes"/>
      <point x="476" y="395"/>
      <point x="464" y="436"/>
      <point x="444" y="468" type="curve"/>
      <point x="542" y="592" type="line"/>
      <point x="473" y="592" type="line"/>
      <point x="407" y="508" type="line"/>
      <point x="380" y="529"/>
      <point x="348" y="540"/>
      <point x="311" y="540" type="curve" smooth="yes"/>
      <point x="165" y="540"/>
      <point x="24" y="365"/>
      <point x="24" y="191" type="curve" smooth="yes"/>
      <point x="24" y="140"/>
      <point x="36" y="97"/>
      <point x="56" y="64" type="curve"/>
      <point x="-43" y="-61" type="line"/>
      <point x="25" y="-61" type="line"/>
      <point x="92" y="23" type="line"/>
      <point x="118" y="2"/>
      <point x="151" y="-10"/>
    </contour>
    <contour>
      <point x="193" y="40" type="curve" smooth="yes"/>
      <point x="168" y="40"/>
      <point x="149" y="52"/>
      <point x="138" y="81" type="curve"/>
      <point x="380" y="387" type="line"/>
      <point x="375" y="237"/>
      <point x="280" y="40"/>
    </contour>
    <contour>
      <point x="311" y="493" type="curve" smooth="yes"/>
      <point x="337" y="493"/>
      <point x="357" y="484"/>
      <point x="369" y="460" type="curve"/>
      <point x="129" y="156" type="line"/>
      <point x="134" y="303"/>
      <point x="224" y="493"/>
    </contour>
  </outline>
</glyph>
<glyph name="gcommaaccent" format="1">
  <advance width="550"/>
  <unicode hex="0123"/>
  <outline>
    <contour>
      <point x="377" y="847" type="line"/>
      <point x="308" y="810"/>
      <point x="282" y="773"/>
      <point x="282" y="730" type="curve" smooth="yes"/>
      <point x="282" y="680"/>
      <point x="305" y="651"/>
      <point x="345" y="651" type="curve" smooth="yes"/>
      <point x="380" y="651"/>
      <point x="404" y="673"/>
      <point x="404" y="704" type="curve" smooth="yes"/>
      <point x="404" y="732"/>
      <point x="386" y="751"/>
      <point x="360" y="751" type="curve" smooth="yes"/>
      <point x="349" y="751"/>
      <point x="340" y="748"/>
      <point x="334" y="743" type="curve"/>
      <point x="334" y="772"/>
      <point x="354" y="796"/>
      <point x="399" y="821" type="curve"/>
    </contour>
    <component base="g"/>
  </outline>
</glyph>
<glyph name="Hbar" format="1">
  <advance width="913"/>
  <unicode hex="0126"/>
  <outline>
    <contour>
      <point x="929" y="541" type="line"/>
      <point x="942" y="591" type="line"/>
      <point x="128" y="591" type="line"/>
      <point x="115" y="541" type="line"/>
    </contour>
    <component base="H" xOffset="2"/>
  </outline>
</glyph>
<glyph name="hbar" format="1">
  <advance width="574"/>
  <unicode hex="0127"/>
  <outline>
    <contour>
      <point x="389" y="630" type="line"/>
      <point x="402" y="680" type="line"/>
      <point x="102" y="680" type="line"/>
      <point x="89" y="630" type="line"/>
    </contour>
    <component base="h"/>
  </outline>
</glyph>
<glyph name="kgreenlandic" format="1">
  <advance width="542"/>
  <unicode hex="0138"/>
  <outline>
    <contour>
      <point x="386" y="80" type="curve" smooth="yes"/>
      <point x="368" y="80"/>
      <point x="354" y="97"/>
      <point x="340" y="135" type="curve" smooth="yes"/>
      <point x="289" y="267" type="line"/>
      <point x="315" y="279" type="line" smooth="yes"/>
      <point x="425" y="329"/>
      <point x="491" y="396"/>
      <point x="491" y="458" type="curve" smooth="yes"/>
      <point x="491" y="509"/>
      <point x="452" y="541"/>
      <point x="390" y="541" type="curve" smooth="yes"/>
      <point x="331" y="541"/>
      <point x="281" y="508"/>
      <point x="243" y="444" type="curve"/>
      <point x="239" y="445" type="line"/>
      <point x="265" y="540" type="line"/>
      <point x="66" y="530" type="line"/>
      <point x="57" y="500" type="line"/>
      <point x="130" y="500"/>
      <point x="150" y="492"/>
      <point x="150" y="464" type="curve" smooth="yes"/>
      <point x="150" y="456"/>
      <point x="148" y="446"/>
      <point x="143" y="427" type="curve" smooth="yes"/>
      <point x="28" y="0" type="line"/>
      <point x="119" y="0" type="line"/>
      <point x="182" y="218" type="line"/>
      <point x="204" y="228" type="line"/>
      <point x="271" y="68" type="line" smooth="yes"/>
      <point x="296" y="8"/>
      <point x="313" y="-10"/>
      <point x="345" y="-10" type="curve" smooth="yes"/>
      <point x="396" y="-10"/>
      <point x="446" y="41"/>
      <point x="494" y="141" type="curve"/>
      <point x="468" y="155" type="line"/>
      <point x="433" y="105"/>
      <point x="406" y="80"/>
    </contour>
    <contour>
      <point x="191" y="268" type="curve"/>
      <point x="221" y="378"/>
      <point x="295" y="473"/>
      <point x="350" y="473" type="curve" smooth="yes"/>
      <point x="376" y="473"/>
      <point x="391" y="458"/>
      <point x="391" y="432" type="curve" smooth="yes"/>
      <point x="391" y="378"/>
      <point x="307" y="308"/>
    </contour>
  </outline>
</glyph>
<glyph name="Schwa" format="1">
  <advance width="644"/>
  <unicode hex="018F"/>
  <outline>
    <contour>
      <point x="176" y="570" type="line"/>
      <point x="240" y="662"/>
      <point x="321" y="717"/>
      <point x="391" y="717" type="curve" smooth="yes"/>
      <point x="466" y="717"/>
      <point x="507" y="656"/>
      <point x="507" y="545" type="curve" smooth="yes"/>
      <point x="507" y="519"/>
      <point x="506" y="493"/>
      <point x="501" y="466" type="curve"/>
      <point x="237" y="409"/>
      <point x="16" y="249"/>
      <point x="16" y="115" type="curve" smooth="yes"/>
      <point x="16" y="42"/>
      <point x="81" y="-10"/>
      <point x="173" y="-10" type="curve" smooth="yes"/>
      <point x="389" y="-10"/>
      <point x="628" y="282"/>
      <point x="628" y="547" type="curve" smooth="yes"/>
      <point x="628" y="695"/>
      <point x="555" y="781"/>
      <point x="427" y="781" type="curve" smooth="yes"/>
      <point x="312" y="781"/>
      <point x="210" y="719"/>
      <point x="130" y="600" type="curve"/>
    </contour>
    <contour>
      <point x="199" y="48" type="curve" smooth="yes"/>
      <point x="165" y="48"/>
      <point x="141" y="68"/>
      <point x="141" y="108" type="curve" smooth="yes"/>
      <point x="141" y="227"/>
      <point x="288" y="349"/>
      <point x="487" y="401" type="curve"/>
      <point x="433" y="220"/>
      <point x="309" y="48"/>
    </contour>
  </outline>
</glyph>
<glyph name="florin" format="1">
  <advance width="460"/>
  <unicode hex="0192"/>
  <outline>
    <contour>
      <point x="77" y="-96" type="curve" smooth="yes"/>
      <point x="52" y="-96"/>
      <point x="37" y="-81"/>
      <point x="37" y="-56" type="curve" smooth="yes"/>
      <point x="37" y="-30"/>
      <point x="50" y="-10"/>
      <point x="69" y="-6" type="curve"/>
      <point x="60" y="13"/>
      <point x="48" y="21"/>
      <point x="27" y="21" type="curve" smooth="yes"/>
      <point x="-15" y="21"/>
      <point x="-45" y="-11"/>
      <point x="-45" y="-55" type="curve" smooth="yes"/>
      <point x="-45" y="-110"/>
      <point x="-3" y="-145"/>
      <point x="63" y="-145" type="curve" smooth="yes"/>
      <point x="165" y="-145"/>
      <point x="218" y="-63"/>
      <point x="253" y="153" type="curve" smooth="yes"/>
      <point x="308" y="490" type="line"/>
      <point x="396" y="490" type="line"/>
      <point x="404" y="531" type="line"/>
      <point x="314" y="531" type="line"/>
      <point x="334" y="703"/>
      <point x="374" y="790"/>
      <point x="433" y="790" type="curve" smooth="yes"/>
      <point x="460" y="790"/>
      <point x="479" y="772"/>
      <point x="479" y="747" type="curve" smooth="yes"/>
      <point x="479" y="720"/>
      <point x="459" y="695"/>
      <point x="435" y="691" type="curve"/>
      <point x="444" y="675"/>
      <point x="456" y="669"/>
      <point x="476" y="669" type="curve" smooth="yes"/>
      <point x="520" y="669"/>
      <point x="553" y="700"/>
      <point x="553" y="742" type="curve" smooth="yes"/>
      <point x="553" y="793"/>
      <point x="503" y="830"/>
      <point x="434" y="830" type="curve" smooth="yes"/>
      <point x="326" y="830"/>
      <point x="267" y="742"/>
      <point x="232" y="531" type="curve"/>
      <point x="147" y="531" type="line"/>
      <point x="139" y="490" type="line"/>
      <point x="225" y="490" type="line"/>
      <point x="138" y="-13" type="line" smooth="yes"/>
      <point x="129" y="-66"/>
      <point x="110" y="-96"/>
    </contour>
  </outline>
</glyph>
<glyph name="ogonek" format="1">
  <advance width="265"/>
  <unicode hex="02DB"/>
  <outline>
    <contour>
      <point x="166" y="0" type="move" name="_bottom"/>
    </contour>
    <contour>
      <point x="225" y="-121" type="line"/>
      <point x="190" y="-155"/>
      <point x="155" y="-174"/>
      <point x="130" y="-174" type="curve" smooth="yes"/>
      <point x="102" y="-174"/>
      <point x="79" y="-153"/>
      <point x="79" y="-126" type="curve" smooth="yes"/>
      <point x="79" y="-84"/>
      <point x="130" y="-29"/>
      <point x="202" y="6" type="curve"/>
      <point x="202" y="10" type="line"/>
      <point x="149" y="10" type="line"/>
      <point x="55" y="-27"/>
      <point x="0" y="-86"/>
      <point x="0" y="-149" type="curve" smooth="yes"/>
      <point x="0" y="-202"/>
      <point x="36" y="-234"/>
      <point x="97" y="-234" type="curve" smooth="yes"/>
      <point x="157" y="-234"/>
      <point x="213" y="-205"/>
      <point x="254" y="-152" type="curve"/>
    </contour>
  </outline>
</glyph>
<glyph name="tilde" format="1">
  <advance width="381"/>
  <unicode hex="02DC"/>
  <outline>
    <contour>
      <point x="191" y="651" type="move" name="_top"/>
    </contour>
    <contour>
      <point x="54" y="660" type="line"/>
      <point x="63" y="689"/>
      <point x="74" y="700"/>
      <point x="96" y="700" type="curve" smooth="yes"/>
      <point x="112" y="700"/>
      <point x="133" y="694"/>
      <point x="178" y="677" type="curve" smooth="yes"/>
      <point x="225" y="658"/>
      <point x="244" y="652"/>
      <point x="262" y="652" type="curve" smooth="yes"/>
      <point x="288" y="652"/>
      <point x="312" y="665"/>
      <point x="329" y="688" type="curve" smooth="yes"/>
      <point x="345" y="709"/>
      <point x="358" y="743"/>
      <point x="361" y="770" type="curve"/>
      <point x="328" y="770" type="line"/>
      <point x="319" y="740"/>
      <point x="306" y="728"/>
      <point x="284" y="728" type="curve" smooth="yes"/>
      <point x="267" y="728"/>
      <point x="250" y="733"/>
      <point x="211" y="750" type="curve" smooth="yes"/>
      <point x="172" y="767"/>
      <point x="145" y="774"/>
      <point x="125" y="774" type="curve" smooth="yes"/>
      <point x="74" y="774"/>
      <point x="31" y="727"/>
      <point x="20" y="660" type="curve"/>
    </contour>
  </outline>
</glyph>
<glyph name="quoteright" format="1">
  <advance width="249"/>
  <unicode hex="2019"/>
  <outline>
    <contour>
      <point x="145" y="559" type="line"/>
      <point x="268" y="634"/>
      <point x="318" y="690"/>
      <point x="318" y="777" type="curve" smooth="yes"/>
      <point x="318" y="811"/>
      <point x="300" y="830"/>
      <point x="266" y="830" type="curve" smooth="yes"/>
      <point x="221" y="830"/>
      <point x="179" y="797"/>
      <point x="179" y="753" type="curve" smooth="yes"/>
      <point x="179" y="729"/>
      <point x="193" y="714"/>
      <point x="219" y="714" type="curve" smooth="yes"/>
      <point x="230" y="714"/>
      <point x="242" y="717"/>
      <point x="251" y="722" type="curve"/>
      <point x="237" y="671"/>
      <point x="203" y="632"/>
      <point x="129" y="586" type="curve"/>
    </contour>
  </outline>
</glyph>
<glyph name="dagger" format="1">
  <advance width="560"/>
  <unicode hex="2020"/>
  <outline>
    <contour>
      <point x="128" y="429" type="curve" smooth="yes"/>
      <point x="174" y="429"/>
      <point x="210" y="461"/>
      <point x="304" y="469" type="curve"/>
      <point x="276" y="370"/>
      <point x="245" y="317"/>
      <point x="193" y="261" type="curve"/>
      <point x="193" y="153"/>
      <point x="153" y="-93"/>
      <point x="108" y="-260" type="curve"/>
      <point x="148" y="-260" type="line"/>
      <point x="193" y="-93"/>
      <point x="285" y="153"/>
      <point x="343" y="261" type="curve"/>
      <point x="332" y="290"/>
      <point x="325" y="318"/>
      <point x="325" y="352" type="curve" smooth="yes"/>
      <point x="325" y="384"/>
      <point x="331" y="421"/>
      <point x="344" y="469" type="curve"/>
      <point x="430" y="461"/>
      <point x="450" y="429"/>
      <point x="496" y="429" type="curve" smooth="yes"/>
      <point x="536" y="429"/>
      <point x="576" y="466"/>
      <point x="576" y="508" type="curve" smooth="yes"/>
      <point x="576" y="534"/>
      <point x="558" y="553"/>
      <point x="529" y="553" type="curve" smooth="yes"/>
      <point x="483" y="553"/>
      <point x="447" y="521"/>
      <point x="355" y="512" type="curve"/>
      <point x="395" y="642"/>
      <point x="454" y="673"/>
      <point x="454" y="735" type="curve" smooth="yes"/>
      <point x="454" y="761"/>
      <point x="436" y="780"/>
      <point x="407" y="780" type="curve" smooth="yes"/>
      <point x="357" y="780"/>
      <point x="323" y="734"/>
      <point x="323" y="683" type="curve" smooth="yes"/>
      <point x="323" y="662"/>
      <point x="327" y="641"/>
      <point x="327" y="612" type="curve" smooth="yes"/>
      <point x="327" y="587"/>
      <point x="324" y="555"/>
      <point x="314" y="512" type="curve"/>
      <point x="225" y="520"/>
      <point x="206" y="553"/>
      <point x="161" y="553" type="curve" smooth="yes"/>
      <point x="122" y="553"/>
      <point x="80" y="517"/>
      <point x="80" y="475" type="curve" smooth="yes"/>
      <point x="80" y="448"/>
      <point x="99" y="429"/>
    </contour>
  </outline>
</glyph>
<glyph name="guilsinglleft" format="1">
  <advance width="307"/>
  <unicode hex="2039"/>
  <outline>
    <contour>
      <point x="157" y="104" type="line"/>
      <point x="181" y="124" type="line"/>
      <point x="120" y="262" type="line"/>
      <point x="256" y="400" type="line"/>
      <point x="242" y="421" type="line"/>
      <point x="29" y="262" type="line"/>
    </contour>
  </outline>
</glyph>
<glyph name="fraction" format="1">
  <advance width="40"/>
  <unicode hex="2044"/>
  <outline>
    <contour>
      <point x="380" y="770" type="line"/>
      <point x="322" y="770" type="line"/>
      <point x="-301" y="0" type="line"/>
      <point x="-234" y="0" type="line"/>
    </contour>
  </outline>
</glyph>
<glyph name="fivesuperior" format="1">
  <advance width="286"/>
  <unicode hex="2075"/>
  <outline>
    <contour>
      <point x="225" y="665" type="curve" smooth="yes"/>
      <point x="211" y="665"/>
      <point x="192" y="662"/>
      <point x="185" y="659" type="curve"/>
      <point x="182" y="661" type="line"/>
      <point x="209" y="738" type="line"/>
      <point x="226" y="734"/>
      <point x="249" y="731"/>
      <point x="264" y="731" type="curve" smooth="yes"/>
      <point x="300" y="731"/>
      <point x="323" y="748"/>
      <point x="334" y="780" type="curve"/>
      <point x="331" y="781" type="line"/>
      <point x="317" y="776"/>
      <point x="294" y="773"/>
      <point x="265" y="773" type="curve" smooth="yes"/>
      <point x="236" y="773"/>
      <point x="210" y="776"/>
      <point x="198" y="780" type="curve"/>
      <point x="148" y="637" type="line" smooth="yes"/>
      <point x="147" y="634"/>
      <point x="144" y="626"/>
      <point x="144" y="623" type="curve" smooth="yes"/>
      <point x="144" y="619"/>
      <point x="147" y="616"/>
      <point x="150" y="616" type="curve" smooth="yes"/>
      <point x="160" y="616"/>
      <point x="172" y="640"/>
      <point x="211" y="640" type="curve" smooth="yes"/>
      <point x="250" y="640"/>
      <point x="272" y="619"/>
      <point x="272" y="580" type="curve" smooth="yes"/>
      <point x="272" y="528"/>
      <point x="239" y="490"/>
      <point x="195" y="490" type="curve" smooth="yes"/>
      <point x="166" y="490"/>
      <point x="148" y="504"/>
      <point x="148" y="526" type="curve" smooth="yes"/>
      <point x="148" y="548"/>
      <point x="161" y="564"/>
      <point x="178" y="564" type="curve"/>
      <point x="176" y="574"/>
      <point x="165" y="582"/>
      <point x="152" y="582" type="curve" smooth="yes"/>
      <point x="126" y="582"/>
      <point x="105" y="557"/>
      <point x="105" y="528" type="curve" smooth="yes"/>
      <point x="105" y="489"/>
      <point x="140" y="464"/>
      <point x="192" y="464" type="curve" smooth="yes"/>
      <point x="265" y="464"/>
      <point x="324" y="514"/>
      <point x="324" y="575" type="curve" smooth="yes"/>
      <point x="324" y="627"/>
      <point x="282" y="665"/>
    </contour>
  </outline>
</glyph>
<glyph name="sixsuperior" format="1">
  <advance width="291"/>
  <unicode hex="2076"/>
  <outline>
    <contour>
      <point x="321" y="580" type="curve" smooth="yes"/>
      <point x="321" y="630"/>
      <point x="285" y="663"/>
      <point x="232" y="663" type="curve" smooth="yes"/>
      <point x="213" y="663"/>
      <point x="196" y="658"/>
      <point x="179" y="647" type="curve"/>
      <point x="176" y="648" type="line"/>
      <point x="194" y="712"/>
      <point x="237" y="757"/>
      <point x="280" y="757" type="curve" smooth="yes"/>
      <point x="296" y="757"/>
      <point x="301" y="750"/>
      <point x="301" y="731" type="curve" smooth="yes"/>
      <point x="301" y="717"/>
      <point x="309" y="709"/>
      <point x="320" y="709" type="curve" smooth="yes"/>
      <point x="337" y="709"/>
      <point x="347" y="721"/>
      <point x="347" y="737" type="curve" smooth="yes"/>
      <point x="347" y="762"/>
      <point x="318" y="780"/>
      <point x="280" y="780" type="curve" smooth="yes"/>
      <point x="195" y="780"/>
      <point x="116" y="682"/>
      <point x="116" y="576" type="curve" smooth="yes"/>
      <point x="116" y="507"/>
      <point x="151" y="464"/>
      <point x="206" y="464" type="curve" smooth="yes"/>
      <point x="267" y="464"/>
      <point x="321" y="518"/>
    </contour>
    <contour>
      <point x="225" y="639" type="curve" smooth="yes"/>
      <point x="254" y="639"/>
      <point x="268" y="618"/>
      <point x="268" y="577" type="curve" smooth="yes"/>
      <point x="268" y="527"/>
      <point x="240" y="487"/>
      <point x="204" y="487" type="curve" smooth="yes"/>
      <point x="176" y="487"/>
      <point x="161" y="511"/>
      <point x="161" y="554" type="curve" smooth="yes"/>
      <point x="161" y="605"/>
      <point x="187" y="639"/>
    </contour>
  </outline>
</glyph>
<glyph name="zeroinferior" format="1">
  <advance width="307"/>
  <unicode hex="2080"/>
  <outline>
    <contour>
      <point x="74" y="-10" type="curve" smooth="yes"/>
      <point x="149" y="-10"/>
      <point x="232" y="102"/>
      <point x="232" y="204" type="curve" smooth="yes"/>
      <point x="232" y="265"/>
      <point x="197" y="306"/>
      <point x="145" y="306" type="curve" smooth="yes"/>
      <point x="68" y="306"/>
      <point x="-12" y="200"/>
      <point x="-12" y="97" type="curve" smooth="yes"/>
      <point x="-12" y="33"/>
      <point x="23" y="-10"/>
    </contour>
    <contour>
      <point x="141" y="280" type="curve" smooth="yes"/>
      <point x="164" y="280"/>
      <point x="177" y="261"/>
      <point x="177" y="228" type="curve" smooth="yes"/>
      <point x="177" y="128"/>
      <point x="126" y="16"/>
      <point x="80" y="16" type="curve" smooth="yes"/>
      <point x="56" y="16"/>
      <point x="42" y="36"/>
      <point x="42" y="71" type="curve" smooth="yes"/>
      <point x="42" y="169"/>
      <point x="95" y="280"/>
    </contour>
  </outline>
</glyph>
<glyph name="oneinferior" format="1">
  <advance width="273"/>
  <unicode hex="2081"/>
  <outline>
    <contour>
      <point x="162" y="312" type="line"/>
      <point x="142" y="312" type="line"/>
      <point x="114" y="286"/>
      <point x="84" y="263"/>
      <point x="40" y="263" type="curve"/>
      <point x="33" y="241" type="line"/>
      <point x="63" y="241"/>
      <point x="82" y="248"/>
      <point x="91" y="248" type="curve" smooth="yes"/>
      <point x="95" y="248"/>
      <point x="97" y="246"/>
      <point x="97" y="242" type="curve" smooth="yes"/>
      <point x="97" y="241"/>
      <point x="97" y="238"/>
      <point x="96" y="236" type="curve" smooth="yes"/>
      <point x="56" y="77" type="line" smooth="yes"/>
      <point x="45" y="33"/>
      <point x="28" y="21"/>
      <point x="-10" y="21" type="curve"/>
      <point x="-15" y="0" type="line"/>
      <point x="138" y="0" type="line"/>
      <point x="143" y="21" type="line"/>
      <point x="111" y="21"/>
      <point x="101" y="35"/>
      <point x="101" y="56" type="curve" smooth="yes"/>
      <point x="101" y="71"/>
      <point x="105" y="90"/>
      <point x="111" y="112" type="curve" smooth="yes"/>
    </contour>
  </outline>
</glyph>
<glyph name="commaaccent" format="1">
  <advance width="162"/>
  <unicode hex="F6C3"/>
  <outline>
    <contour>
      <point x="79" y="-10" type="move" name="_bottom"/>
    </contour>
    <contour>
      <point x="47" y="-260" type="line"/>
      <point x="116" y="-223"/>
      <point x="142" y="-186"/>
      <point x="142" y="-143" type="curve" smooth="yes"/>
      <point x="142" y="-93"/>
      <point x="119" y="-64"/>
      <point x="79" y="-64" type="curve" smooth="yes"/>
      <point x="44" y="-64"/>
      <point x="20" y="-86"/>
      <point x="20" y="-117" type="curve" smooth="yes"/>
      <point x="20" y="-145"/>
      <point x="38" y="-164"/>
      <point x="64" y="-164" type="curve" smooth="yes"/>
      <point x="75" y="-164"/>
      <point x="84" y="-161"/>
      <point x="90" y="-156" type="curve"/>
      <point x="90" y="-185"/>
      <point x="70" y="-209"/>
      <point x="25" y="-234" type="curve"/>
    </contour>
  </outline>
</glyph>
<glyph name="W.ss01" format="1">
  <advance width="1028"/>
  <outline>
    <contour>
      <point x="655" y="142" type="line"/>
      <point x="651" y="142" type="line"/>
      <point x="651" y="296"/>
      <point x="652" y="449"/>
      <point x="653" y="603" type="curve" smooth="yes"/>
      <point x="654" y="712"/>
      <point x="666" y="730"/>
      <point x="744" y="730" type="curve"/>
      <point x="746" y="770" type="line"/>
      <point x="460" y="770" type="line"/>
      <point x="458" y="730" type="line"/>
      <point x="523" y="730"/>
      <point x="543" y="720"/>
      <point x="552" y="681" type="curve" smooth="yes"/>
      <point x="556" y="665"/>
      <point x="557" y="639"/>
      <point x="557" y="604" type="curve" smooth="yes"/>
      <point x="557" y="579" type="line"/>
      <point x="313" y="144" type="line"/>
      <point x="309" y="144" type="line"/>
      <point x="309" y="297"/>
      <point x="310" y="450"/>
      <point x="311" y="603" type="curve" smooth="yes"/>
      <point x="312" y="711"/>
      <point x="326" y="730"/>
      <point x="382" y="730" type="curve"/>
      <point x="384" y="770" type="line"/>
      <point x="108" y="770" type="line"/>
      <point x="106" y="730" type="line"/>
      <point x="179" y="730"/>
      <point x="201" y="720"/>
      <point x="210" y="681" type="curve" smooth="yes"/>
      <point x="214" y="665"/>
      <point x="215" y="639"/>
      <point x="215" y="604" type="curve" smooth="yes"/>
      <point x="213" y="399"/>
      <point x="211" y="195"/>
      <point x="210" y="-10" type="curve"/>
      <point x="294" y="-10" type="line"/>
      <point x="555" y="467" type="line"/>
      <point x="555" y="-10" type="line"/>
      <point x="636" y="-10" type="line"/>
      <point x="938" y="539" type="line" smooth="yes"/>
      <point x="1021" y="690"/>
      <point x="1075" y="730"/>
      <point x="1138" y="730" type="curve"/>
      <point x="1140" y="770" type="line"/>
      <point x="881" y="770" type="line"/>
      <point x="879" y="730" type="line"/>
      <point x="921" y="730"/>
      <point x="948" y="726"/>
      <point x="948" y="707" type="curve" smooth="yes"/>
      <point x="948" y="684"/>
      <point x="927" y="637"/>
      <point x="877" y="546" type="curve" smooth="yes"/>
    </contour>
  </outline>
</glyph>
<glyph name="caron.cap" format="1">
  <advance width="368"/>
  <outline>
    <contour>
      <point x="184" y="830" type="move" name="_topcap"/>
    </contour>
    <contour>
      <point x="224" y="851" type="line"/>
      <point x="362" y="960" type="line"/>
      <point x="317" y="960" type="line"/>
      <point x="184" y="906" type="line"/>
      <point x="79" y="960" type="line"/>
      <point x="34" y="960" type="line"/>
      <point x="114" y="851" type="line"/>
    </contour>
  </outline>
</glyph>
<glyph name="dieresis.cap" format="1">
  <advance width="323"/>
  <outline>
    <contour>
      <point x="161" y="830" type="move" name="_topcap"/>
    </contour>
    <contour>
      <point x="20" y="910" type="curve"/>
      <point x="18" y="905"/>
      <point x="18" y="900"/>
      <point x="18" y="895" type="curve" smooth="yes"/>
      <point x="18" y="874"/>
      <point x="33" y="859"/>
      <point x="56" y="859" type="curve" smooth="yes"/>
      <point x="88" y="859"/>
      <point x="123" y="888"/>
      <point x="123" y="923" type="curve" smooth="yes"/>
      <point x="123" y="944"/>
      <point x="107" y="960"/>
      <point x="83" y="960" type="curve" smooth="yes"/>
      <point x="55" y="960"/>
      <point x="27" y="938"/>
    </contour>
    <contour>
      <point x="202" y="910" type="curve"/>
      <point x="200" y="905"/>
      <point x="200" y="900"/>
      <point x="200" y="895" type="curve" smooth="yes"/>
      <point x="200" y="874"/>
      <point x="215" y="859"/>
      <point x="239" y="859" type="curve" smooth="yes"/>
      <point x="270" y="859"/>
      <point x="305" y="888"/>
      <point x="305" y="923" type="curve" smooth="yes"/>
      <point x="305" y="944"/>
      <point x="289" y="960"/>
      <point x="266" y="960" type="curve" smooth="yes"/>
      <point x="237" y="960"/>
      <point x="209" y="938"/>
    </contour>
  </outline>
</glyph>
<glyph name="dotaccent.cap" format="1">
  <advance width="165"/>
  <outline>
    <contour>
      <point x="82" y="830" type="move" name="_topcap"/>
    </contour>
    <contour>
      <point x="30" y="904" type="curve" smooth="yes"/>
      <point x="30" y="876"/>
      <point x="54" y="852"/>
      <point x="82" y="852" type="curve" smooth="yes"/>
      <point x="113" y="852"/>
      <point x="137" y="876"/>
      <point x="137" y="904" type="curve" smooth="yes"/>
      <point x="137" y="935"/>
      <point x="113" y="959"/>
      <point x="82" y="959" type="curve" smooth="yes"/>
      <point x="54" y="959"/>
      <point x="30" y="935"/>
    </contour>
  </outline>
</glyph>
<glyph name="f_k" format="1">
  <advance width="817"/>
  <outline>
    <contour>
      <point x="618" y="830" type="line"/>
      <point x="513" y="804" type="line"/>
      <point x="493" y="814"/>
      <point x="463" y="820"/>
      <point x="432" y="820" type="curve" smooth="yes"/>
      <point x="307" y="820"/>
      <point x="227" y="723"/>
      <point x="165" y="496" type="curve"/>
      <point x="70" y="496" type="line"/>
      <point x="57" y="450" type="line"/>
      <point x="153" y="450" type="line"/>
      <point x="8" y="-113" type="line" smooth="yes"/>
      <point x="-6" y="-168"/>
      <point x="-33" y="-200"/>
      <point x="-65" y="-200" type="curve" smooth="yes"/>
      <point x="-113" y="-200"/>
      <point x="-90" y="-130"/>
      <point x="-145" y="-130" type="curve" smooth="yes"/>
      <point x="-175" y="-130"/>
      <point x="-194" y="-151"/>
      <point x="-194" y="-183" type="curve" smooth="yes"/>
      <point x="-194" y="-230"/>
      <point x="-153" y="-260"/>
      <point x="-88" y="-260" type="curve" smooth="yes"/>
      <point x="25" y="-260"/>
      <point x="92" y="-167"/>
      <point x="152" y="73" type="curve" smooth="yes"/>
      <point x="246" y="450" type="line"/>
      <point x="351" y="450" type="line"/>
      <point x="365" y="496" type="line"/>
      <point x="257" y="496" type="line"/>
      <point x="302" y="676"/>
      <point x="364" y="775"/>
      <point x="433" y="775" type="curve" smooth="yes"/>
      <point x="468" y="775"/>
      <point x="489" y="750"/>
      <point x="489" y="712" type="curve" smooth="yes"/>
      <point x="489" y="702"/>
      <point x="487" y="691"/>
      <point x="484" y="679" type="curve"/>
    </contour>
    <contour>
      <point x="661" y="80" type="curve" smooth="yes"/>
      <point x="643" y="80"/>
      <point x="629" y="97"/>
      <point x="615" y="135" type="curve" smooth="yes"/>
      <point x="564" y="267" type="line"/>
      <point x="590" y="279" type="line" smooth="yes"/>
      <point x="700" y="329"/>
      <point x="766" y="396"/>
      <point x="766" y="458" type="curve" smooth="yes"/>
      <point x="766" y="509"/>
      <point x="727" y="541"/>
      <point x="665" y="541" type="curve" smooth="yes"/>
      <point x="606" y="541"/>
      <point x="556" y="508"/>
      <point x="518" y="444" type="curve"/>
      <point x="514" y="445" type="line"/>
      <point x="618" y="830" type="line"/>
      <point x="507" y="767" type="line"/>
      <point x="303" y="0" type="line"/>
      <point x="394" y="0" type="line"/>
      <point x="457" y="218" type="line"/>
      <point x="479" y="228" type="line"/>
      <point x="546" y="68" type="line" smooth="yes"/>
      <point x="571" y="8"/>
      <point x="588" y="-10"/>
      <point x="620" y="-10" type="curve" smooth="yes"/>
      <point x="671" y="-10"/>
      <point x="721" y="41"/>
      <point x="769" y="141" type="curve"/>
      <point x="743" y="155" type="line"/>
      <point x="708" y="105"/>
      <point x="681" y="80"/>
    </contour>
    <contour>
      <point x="466" y="268" type="curve"/>
      <point x="496" y="378"/>
      <point x="570" y="473"/>
      <point x="625" y="473" type="curve" smooth="yes"/>
      <point x="651" y="473"/>
      <point x="666" y="458"/>
      <point x="666" y="432" type="curve" smooth="yes"/>
      <point x="666" y="378"/>
      <point x="582" y="308"/>
    </contour>
  </outline>
</glyph>
<glyph name="f_t" format="1">
  <advance width="641"/>
  <outline>
    <contour>
      <point x="622" y="450" type="line"/>
      <point x="636" y="496" type="line"/>
      <point x="527" y="496" type="line"/>
      <point x="553" y="582" type="line"/>
      <point x="461" y="582" type="line"/>
      <point x="435" y="496" type="line"/>
      <point x="348" y="496" type="line"/>
      <point x="335" y="450" type="line"/>
      <point x="421" y="450" type="line"/>
      <point x="346" y="202" type="line" smooth="yes"/>
      <point x="323" y="124"/>
      <point x="315" y="82"/>
      <point x="315" y="55" type="curve" smooth="yes"/>
      <point x="315" y="9"/>
      <point x="335" y="-10"/>
      <point x="381" y="-10" type="curve" smooth="yes"/>
      <point x="446" y="-10"/>
      <point x="545" y="73"/>
      <point x="591" y="164" type="curve"/>
      <point x="562" y="181" type="line"/>
      <point x="544" y="151"/>
      <point x="478" y="67"/>
      <point x="431" y="67" type="curve" smooth="yes"/>
      <point x="416" y="67"/>
      <point x="411" y="78"/>
      <point x="411" y="90" type="curve" smooth="yes"/>
      <point x="412" y="109"/>
      <point x="418" y="136"/>
      <point x="429" y="172" type="curve" smooth="yes"/>
      <point x="513" y="450" type="line"/>
    </contour>
    <component base="f"/>
  </outline>
</glyph>
<glyph name="grave.cap" format="1">
  <advance width="295"/>
  <outline>
    <contour>
      <point x="169" y="830" type="move" name="_topcap"/>
    </contour>
    <contour>
      <point x="260" y="850" type="line"/>
      <point x="150" y="927" type="line" smooth="yes"/>
      <point x="119" y="949"/>
      <point x="99" y="960"/>
      <point x="72" y="960" type="curve" smooth="yes"/>
      <point x="50" y="960"/>
      <point x="24" y="944"/>
      <point x="24" y="919" type="curve" smooth="yes"/>
      <point x="24" y="901"/>
      <point x="49" y="887"/>
      <point x="87" y="878" type="curve" smooth="yes"/>
      <point x="200" y="850" type="line"/>
    </contour>
  </outline>
</glyph>
<glyph name="s_p" format="1">
  <advance width="888"/>
  <outline>
    <contour>
      <point x="598" y="769" type="line"/>
      <point x="574" y="724"/>
      <point x="535" y="698"/>
      <point x="493" y="698" type="curve" smooth="yes"/>
      <point x="444" y="698"/>
      <point x="391" y="730"/>
      <point x="339" y="730" type="curve" smooth="yes"/>
      <point x="272" y="730"/>
      <point x="220" y="683"/>
      <point x="220" y="622" type="curve" smooth="yes"/>
      <point x="220" y="549"/>
      <point x="288" y="491"/>
      <point x="288" y="491" type="curve"/>
      <point x="319" y="519" type="line"/>
      <point x="286" y="540"/>
      <point x="270" y="566"/>
      <point x="270" y="602" type="curve" smooth="yes"/>
      <point x="270" y="649"/>
      <point x="299" y="679"/>
      <point x="344" y="679" type="curve" smooth="yes"/>
      <point x="388" y="679"/>
      <point x="427" y="648"/>
      <point x="491" y="648" type="curve" smooth="yes"/>
      <point x="536" y="648"/>
      <point x="570" y="674"/>
      <point x="593" y="710" type="curve"/>
    </contour>
    <contour>
      <point x="437" y="407" type="line"/>
      <point x="456" y="426"/>
      <point x="481" y="442"/>
      <point x="505" y="454" type="curve"/>
      <point x="324" y="-164" type="line" smooth="yes"/>
      <point x="314" y="-199"/>
      <point x="292" y="-210"/>
      <point x="236" y="-210" type="curve"/>
      <point x="230" y="-250" type="line"/>
      <point x="513" y="-250" type="line"/>
      <point x="519" y="-210" type="line"/>
      <point x="450" y="-209"/>
      <point x="426" y="-197"/>
      <point x="426" y="-164" type="curve" smooth="yes"/>
      <point x="426" y="-154"/>
      <point x="428" y="-141"/>
      <point x="434" y="-121" type="curve" smooth="yes"/>
      <point x="471" y="18" type="line"/>
      <point x="669" y="44"/>
      <point x="850" y="188"/>
      <point x="850" y="364" type="curve" smooth="yes"/>
      <point x="850" y="474"/>
      <point x="784" y="539"/>
      <point x="671" y="539" type="curve" smooth="yes"/>
      <point x="650" y="539"/>
      <point x="629" y="536"/>
      <point x="608" y="532" type="curve"/>
      <point x="674" y="770" type="line"/>
      <point x="598" y="770" type="line"/>
      <point x="520" y="505" type="line"/>
      <point x="481" y="489"/>
      <point x="438" y="466"/>
      <point x="410" y="435" type="curve"/>
    </contour>
    <contour>
      <point x="645" y="490" type="curve" smooth="yes"/>
      <point x="706" y="490"/>
      <point x="746" y="438"/>
      <point x="746" y="358" type="curve" smooth="yes"/>
      <point x="746" y="214"/>
      <point x="616" y="87"/>
      <point x="482" y="61" type="curve"/>
      <point x="595" y="485" type="line"/>
      <point x="611" y="488"/>
      <point x="628" y="490"/>
    </contour>
    <component base="s"/>
  </outline>
</glyph>
